<svg width="512" height="512" viewBox="0 0 512 512" fill="none" xmlns="http://www.w3.org/2000/svg">
  <rect width="512" height="512" rx="120" fill="#121212"/>
  <rect x="72" y="72" width="368" height="368" rx="92" fill="#F4F1EB" fill-opacity="0.08" stroke="#F4F1EB" stroke-opacity="0.16"/>
  <path d="M154 182C154 155.49 175.49 134 202 134H310C336.51 134 358 155.49 358 182V198H310V186C310 176.611 302.389 169 293 169H219C209.611 169 202 176.611 202 186V214C202 223.389 209.611 231 219 231H293C328.346 231 357 259.654 357 295V326C357 352.51 335.51 374 309 374H202C175.49 374 154 352.51 154 326V310H202V322C202 331.389 209.611 339 219 339H292C301.389 339 309 331.389 309 322V293C309 283.611 301.389 276 292 276H219C183.654 276 155 247.346 155 212V182H154Z" fill="#F4F1EB"/>
</svg>
